PathFileType	4	(X/Y/Z)	C:/Users/opensim2020/Desktop/walking_exp_matlab/subject01_walking06_straight_03.trc																																																																																																																															
DataRate	CameraRate	NumFrames	NumMarkers	Units	OrigDataRate	OrigDataStartFrame	OrigNumFrames																																																																																																																											
100	100	4	43	mm	100	2105	206																																																																																																																											
Frame#	Time	LFHD			RFHD			LBHD			RBHD			C7			T10			CLAV			STRN			RBAK			LSHO			LUPA			LELB			LFRM			LWRA			LWRB			LFIN			RSHO			RUPA			RELB			RFRM			RWRA			RWRB			RFIN			LASI			RASI			LPSI			RPSI			LTHI			LKNE			LTIB			LANK			LHEE			LTOE			RTHI			RKNE			RTIB			RANK			RHEE			RTOE			*39			*40			*41			*42		
		X1	Y1	Z1	X2	Y2	Z2	X3	Y3	Z3	X4	Y4	Z4	X5	Y5	Z5	X6	Y6	Z6	X7	Y7	Z7	X8	Y8	Z8	X9	Y9	Z9	X10	Y10	Z10	X11	Y11	Z11	X12	Y12	Z12	X13	Y13	Z13	X14	Y14	Z14	X15	Y15	Z15	X16	Y16	Z16	X17	Y17	Z17	X18	Y18	Z18	X19	Y19	Z19	X20	Y20	Z20	X21	Y21	Z21	X22	Y22	Z22	X23	Y23	Z23	X24	Y24	Z24	X25	Y25	Z25	X26	Y26	Z26	X27	Y27	Z27	X28	Y28	Z28	X29	Y29	Z29	X30	Y30	Z30	X31	Y31	Z31	X32	Y32	Z32	X33	Y33	Z33	X34	Y34	Z34	X35	Y35	Z35	X36	Y36	Z36	X37	Y37	Z37	X38	Y38	Z38	X39	Y39	Z39	X40	Y40	Z40	X41	Y41	Z41	X42	Y42	Z42	X43	Y43	Z43
																																																																																																																																		
1	0	-968.19421	1670.08325	1515.11145	-940.32196	1676.16101	1626.63989	-1074.81311	1607.63708	1537.02502	-1048.26343	1612.58875	1655.17664	-1091.46606	1428.67627	1557.09192	-1138.17456	1139.28821	1543.6073	-951.01465	1357.15356	1557.18896	-914.24359	1200.20471	1544.58423	-1156.97888	1235.67419	1621.2771	-1001.59589	1398.93506	1396.3291	-1045.61462	1221.16663	1299.45386	-1077.25916	1075.45972	1290.90894	-1054.25732	965.03778	1261.47998	-998.2229	837.50165	1276.96936	-1050.31299	843.18896	1248.40613	-1013.07031	767.90686	1237.77722	-1018.69391	1376.32324	1707.51379	-1059.7616	1174.03552	1807.22876	-1036.76782	1050.74524	1818.65247	-978.18573	948.14716	1858.823	-862.76288	868.1684	1862.51477	-910.57953	851.42548	1890.05627	-849.07312	797.95978	1906.53406	-970.03754	934.5625	1433.32935	-979.78516	924.90149	1650.90503	-1156.56848	945.60779	1473.98083	-1165.04163	950.28485	1617.80359	-920.39282	618.59772	1353.37683	-892.89246	486.24774	1369.83484	-911.20728	301.01535	1357.58618	-889.1062	79.15732	1403.26196	-921.7359	40.77224	1461.02515	-744.45209	69.07782	1387.67126	-1088.79309	606.10577	1711.26794	-1109.44324	448.07935	1698.88477	-1192.36365	290.81009	1704.92859	-1233.97754	83.04302	1665.40369	-1273.23633	48.12564	1607.8584	-1100.35229	29.2361	1697.91638	-960.55981	1708.02954	1607.37183	1973.22278	1023.35089	-3101.8833	2012.60156	1022.07739	-3140.71313	NaN	NaN	NaN
2	0.01	-960.5387	1668.98792	1513.82764	-932.12079	1675.37817	1624.92065	-1067.39148	1607.20422	1536.21729	-1040.1001	1612.25403	1654.19397	-1084.32434	1427.90991	1556.83411	-1131.18164	1138.51331	1543.92712	-943.8429	1356.44519	1555.84619	-907.17365	1199.5094	1543.19934	-1149.35791	1235.12	1621.92908	-995.75842	1398.1062	1395.3717	-1041.4491	1220.53394	1299.22668	-1074.08728	1075.08899	1291.23694	-1052.6759	964.50305	1261.35657	-997.74969	836.21802	1275.36621	-1050.51221	842.65491	1248.01978	-1014.00055	766.91748	1236.65332	-1010.24878	1375.729	1706.62732	-1049.42212	1173.77295	1807.28528	-1026.07056	1050.60022	1818.93054	-966.8504	948.31238	1859.05542	-851.13226	868.7926	1862.33301	-898.81787	852.07391	1890.01672	-836.97424	798.77679	1906.55322	-963.04028	933.72369	1432.87463	-972.08331	924.5163	1650.64319	-1149.78247	944.62299	1474.29456	-1157.71057	949.98267	1618.16052	-916.66614	616.61517	1352.95923	-888.42981	484.98776	1369.4425	-900.52899	299.98178	1356.64844	-869.40295	78.37749	1401.43774	-901.04022	39.14128	1458.98987	-724.5896	73.50166	1385.40027	-1083.60583	606.38971	1711.04041	-1106.23547	448.31757	1698.71191	-1190.48828	292.08456	1704.76599	-1233.526	84.33978	1665.6272	-1272.98743	49.72742	1608.19861	-1100.25757	29.24304	1698.02148	-952.51978	1707.16101	1605.77917	1973.06128	1023.25916	-3101.88599	2012.53198	1021.94885	-3140.66284	NaN	NaN	NaN
3	0.02	-952.90582	1668.09277	1512.11401	-923.93854	1674.54932	1623.03271	-1059.85962	1606.72229	1535.22156	-1032.01709	1611.86133	1652.97583	-1077.21729	1427.05603	1556.31873	-1124.02844	1137.61877	1543.97083	-936.63605	1355.72681	1554.35254	-899.96301	1198.82715	1541.70313	-1141.74756	1234.46899	1622.24463	-989.80664	1397.21729	1394.20227	-1037.08679	1219.72949	1298.85229	-1070.63611	1074.6427	1291.54675	-1050.72559	963.84369	1261.12378	-997.04932	835.06049	1274.81482	-1050.11206	842.14166	1247.5907	-1014.60608	765.85071	1235.71863	-1002.1413	1375.3363	1705.41016	-1039.15808	1173.5448	1807.11243	-1015.59753	1050.50635	1819.11523	-955.75214	948.41675	1859.14587	-839.76611	869.19647	1861.88477	-887.28137	852.52655	1889.99304	-825.17297	799.50159	1906.31274	-956.31024	932.78229	1432.19238	-964.29437	923.97998	1650.21533	-1142.77124	943.66138	1474.41858	-1150.02734	949.25482	1618.23169	-912.86096	614.70526	1352.26904	-883.65051	483.90887	1369.09888	-890.26013	299.22083	1355.65662	-851.47174	78.42037	1399.03784	-881.05316	36.96025	1456.81934	-706.49396	77.7234	1383.13	-1078.5011	606.7002	1710.97974	-1102.83826	448.59174	1698.61121	-1188.01965	292.87631	1704.47693	-1232.86475	85.44257	1665.94861	-1272.60901	50.94595	1608.49707	-1100.21204	29.23865	1698.08789	-944.17188	1706.38611	1603.953	1973.03796	1023.75934	-3101.97559	2012.62	1022.15948	-3140.62744	NaN	NaN	NaN
4	0.03	-945.41467	1667.21252	1510.24756	-915.7627	1673.70007	1620.98657	-1052.35596	1606.31763	1533.92358	-1023.95087	1611.51257	1651.55457	-1070.16577	1426.24768	1555.57458	-1116.71143	1136.64429	1543.745	-929.37903	1354.8866	1552.64124	-892.80267	1198.09668	1540.00842	-1134.10449	1233.72034	1622.2301	-983.84119	1396.27625	1392.81592	-1032.45337	1218.81665	1298.172	-1067.78967	1074.06311	1291.28394	-1048.4657	963.12683	1260.84326	-995.83997	833.67316	1273.43396	-1049.32153	841.31024	1247.06445	-1014.82043	764.5752	1234.90466	-993.78461	1374.64709	1704.10864	-1028.99902	1173.25916	1806.64148	-1004.98773	1050.24744	1818.89954	-944.79065	948.46558	1858.91992	-828.62775	869.4552	1861.14453	-875.93353	852.81427	1889.66565	-813.70447	800.03796	1905.84949	-949.47565	931.80157	1431.44312	-956.41235	923.35815	1649.58643	-1135.53003	942.60651	1474.33154	-1142.15063	948.71912	1618.14453	-908.92523	612.73846	1351.74487	-878.5564	483.01962	1368.61523	-880.4408	298.59857	1354.70496	-835.4057	79.04073	1396.80603	-864.41602	36.73217	1454.05103	-689.92377	81.33787	1381.06177	-1072.74158	606.61786	1710.53845	-1099.04089	448.85468	1698.45996	-1185.62512	294.01068	1704.47729	-1232.21814	86.62298	1666.17554	-1272.30774	52.7511	1608.797	-1100.10376	29.19663	1698.19849	-935.89667	1705.56921	1601.91492	1973.21777	1023.37091	-3101.82373	2012.55493	1022.06616	-3140.63672	NaN	NaN	NaN
